<?xml version="1.0" encoding="utf-8"?>
<!-- Generator: Adobe Illustrator 24.1.3, SVG Export Plug-In . SVG Version: 6.00 Build 0)  -->
<svg version="1.1" id="Layer_1" xmlns="http://www.w3.org/2000/svg" xmlns:xlink="http://www.w3.org/1999/xlink" x="0px" y="0px"
	 viewBox="0 0 116 52" style="enable-background:new 0 0 116 52;" xml:space="preserve">
<style type="text/css">
	.st0{fill:#592C82;}
</style>
<g>
	<g>
		<g>
			<path class="st0" d="M8.4,11.2c-1.5,0-2.4,0.1-3.2,0.2l0,0c-1.8,0.2-3.2,3.5-2.4,4.2c0.2,0.1,0.6,0.1,1.2,0
				c0.9-0.2,2.5-0.4,4.6-0.4c3.2,0,5.2,0.6,5.2,3.5v2.2H9c-5.5,0-9,1.8-9,6.9c0,4.8,3.2,7,9,7c6.6,0,9.4-2.3,9.4-7.3v-8.8
				C18.4,13,14.4,11.2,8.4,11.2z M13.9,27.3c0,3.1-2.1,3.6-5,3.6c-2.3,0-4.3-0.4-4.3-3.2c0-2.3,1.5-3.2,4.5-3.2h4.9V27.3z"/>
		</g>
		<g>
			<path class="st0" d="M106,11.2c-1.5,0-2.4,0.1-3.2,0.2l0,0c-1.8,0.2-3.2,3.5-2.4,4.2c0.2,0.1,0.6,0.1,1.2,0
				c0.9-0.2,2.5-0.4,4.6-0.4c3.2,0,5.2,0.6,5.2,3.5v2.2h-4.9c-5.5,0-9,1.8-9,6.9c0,4.8,3.2,7,9,7c6.6,0,9.4-2.3,9.4-7.3v-8.8
				C116,13,112,11.2,106,11.2z M111.5,27.3c0,3.1-2.1,3.6-5,3.6c-2.3,0-4.3-0.4-4.3-3.2c0-2.3,1.5-3.2,4.5-3.2h4.9V27.3z"/>
		</g>
		<g>
			<g>
				<path class="st0" d="M43.7,20.1c0-5.6-3-8.8-9.7-8.8l0,0h0h0l0,0c-6.7,0-9.7,3.3-9.7,8.8v11.1c0,1.8,1.4,3.2,3.2,3.2h0.7
					c0.4,0,0.7-0.3,0.7-0.7V20.1c0-2.9,0.9-4.5,5.1-4.5s5.1,1.6,5.1,4.5v11.1c0,1.4,1,2.7,2.3,3.1c0.3,0.1,0.6,0.1,0.9,0.1h0.7
					c0.4,0,0.7-0.3,0.7-0.7L43.7,20.1L43.7,20.1z"/>
			</g>
		</g>
		<g>
			<path class="st0" d="M54.7,15.3c0-1.6-1.1-3-2.6-3.4c-0.3-0.1-0.6-0.1-1-0.1h-0.8c-0.4,0-0.8,0.3-0.8,0.8v18.3
				c0,1.6,1.1,3,2.6,3.4c0.3,0.1,0.6,0.1,1,0.1h0.8c0.4,0,0.8-0.3,0.8-0.8V15.3z"/>
		</g>
		<path class="st0" d="M3.6,2V0.8c0-0.2,0.2-0.3,0.4-0.2l5.8,3l5.7-3c0.2-0.1,0.4,0,0.4,0.2V2c0,1.1-0.4,1.8-1.3,2.3L9.7,7.1L5,4.4
			C4.1,3.9,3.6,3.2,3.6,2z"/>
		<g>
			<path class="st0" d="M92.2,29.4v-9.4c0-5.7-2.6-8.8-9-8.8c-3.4,0-5.5,1.2-6.7,3.3c-1.1-2.1-3.3-3.3-6.7-3.3
				c-6.2,0-9.1,3.2-9.1,8.8v0l0,0l0,10.7c0,1.6,1,3,2.3,3.4c0.2,0.1,0.5,0.1,0.8,0.1c0,0,0,0,0.1,0h0.7c0.4,0,0.7-0.3,0.7-0.8v-1.2
				v0V20.1c0-2.9,0.8-4.5,4.5-4.5c3.7,0,4.4,1.6,4.4,4.5v0v7.6v3.1c0,1.6,0.9,3,2.2,3.4c0.2,0.1,0.5,0.1,0.7,0.1c0,0,0.1,0,0.1,0H78
				c0.4,0,0.7-0.3,0.7-0.8v-4.1l0,0v-9.4c0-2.9,0.8-4.5,4.5-4.5c3.6,0,4.4,1.6,4.4,4.5v0l0,0v7.7v3.1c0,1.6,1,3,2.3,3.4
				c0.2,0.1,0.5,0.1,0.7,0.1c0,0,0.1,0,0.1,0h0.7c0.4,0,0.7-0.3,0.7-0.8L92.2,29.4L92.2,29.4z"/>
		</g>
	</g>
	<g>
		<g>
			<path class="st0" d="M25.5,46.3v2.3h3.2c0.1,0,0.2,0.1,0.2,0.2v0.6c0,0.1-0.1,0.2-0.2,0.2h-4.1c-0.1,0-0.2-0.1-0.2-0.2v-7
				c0-0.1,0.1-0.2,0.2-0.2h4c0.1,0,0.2,0.1,0.2,0.2V43c0,0.1-0.1,0.2-0.2,0.2h-3.1v2.1h3c0.1,0,0.2,0.1,0.2,0.2v0.5
				c0,0.1-0.1,0.2-0.2,0.2L25.5,46.3L25.5,46.3z"/>
		</g>
		<path class="st0" d="M37.2,43.1c-0.6-0.5-1.5-0.8-2.8-0.8h-1.9c-0.1,0-0.2,0.1-0.2,0.2v7c0,0.1,0.1,0.2,0.2,0.2h1.9
			c1.2,0,2.1-0.3,2.8-0.9c0.6-0.6,0.9-1.6,0.9-2.9C38.1,44.6,37.8,43.6,37.2,43.1z M36.3,48c-0.4,0.4-1,0.6-1.9,0.6h-0.9v-5.3h0.9
			c0.8,0,1.5,0.2,1.9,0.5c0.4,0.4,0.6,1,0.6,2C36.9,46.9,36.7,47.6,36.3,48z"/>
		<g>
			<path class="st0" d="M42.3,49c-0.5-0.5-0.7-1.2-0.7-2.1v-4.5c0-0.1,0.1-0.2,0.2-0.2h0.7c0.1,0,0.2,0.1,0.2,0.2v4.4
				c0,1.2,0.6,1.8,1.7,1.8c1.1,0,1.7-0.6,1.7-1.8v-4.4c0-0.1,0.1-0.2,0.2-0.2h0.7c0.1,0,0.2,0.1,0.2,0.2V47c0,0.9-0.2,1.6-0.7,2.1
				c-0.5,0.5-1.2,0.7-2.1,0.7C43.5,49.7,42.8,49.5,42.3,49z"/>
		</g>
		<g>
			<path class="st0" d="M55.7,48.4c0.1,0,0.2,0,0.3,0.1l0.2,0.5c0,0.1,0,0.2-0.1,0.2c-0.5,0.3-1.1,0.5-1.9,0.5c-1.1,0-1.9-0.3-2.5-1
				c-0.6-0.6-0.9-1.6-0.9-2.8c0-1.2,0.3-2.2,0.9-2.8c0.6-0.6,1.4-1,2.4-1c0.8,0,1.4,0.1,1.9,0.4c0.1,0.1,0.2,0.1,0.1,0.2l-0.2,0.5
				c0,0.1-0.1,0.2-0.3,0.1c-0.4-0.2-0.9-0.3-1.4-0.3c-1.5,0-2.3,0.9-2.3,2.8c0,1.8,0.8,2.8,2.4,2.8C54.8,48.7,55.3,48.6,55.7,48.4z"
				/>
		</g>
		<path class="st0" d="M65.5,49.4l-2.6-7c0-0.1,0-0.1-0.1-0.2c0,0-0.1,0-0.2,0h-0.9c-0.1,0-0.1,0-0.2,0s-0.1,0.1-0.1,0.2l-2.6,7
			c0,0.1,0,0.1,0,0.2c0,0,0.1,0.1,0.1,0.1h0.8c0.1,0,0.2-0.1,0.2-0.2l0.6-1.6h3l0.6,1.6c0,0.1,0.1,0.2,0.2,0.2h0.8
			c0.1,0,0.1,0,0.1-0.1C65.6,49.5,65.6,49.4,65.5,49.4z M61.1,46.8l1.2-3.5h0l1.2,3.5H61.1z"/>
		<g>
			<path class="st0" d="M73.2,48.4c0.1,0,0.2,0,0.3,0.1l0.2,0.5c0,0.1,0,0.2-0.1,0.2c-0.5,0.3-1.1,0.5-1.9,0.5h0
				c0.4,0.2,0.6,0.5,0.6,0.9c0,0.3-0.1,0.5-0.3,0.6c-0.2,0.1-0.5,0.2-0.8,0.2c-0.2,0-0.4,0-0.4,0c-0.1,0-0.1-0.1-0.1-0.1v-0.3
				c0-0.1,0-0.1,0.1-0.1H71c0.3,0,0.5-0.1,0.5-0.3c0-0.3-0.2-0.5-0.6-0.8c-0.8-0.1-1.5-0.5-1.9-1.2c-0.4-0.6-0.7-1.5-0.7-2.6
				c0-1.2,0.3-2.2,0.9-2.8c0.6-0.6,1.4-1,2.4-1c0.8,0,1.4,0.1,1.9,0.4c0.1,0.1,0.2,0.1,0.1,0.2l-0.2,0.5c0,0.1-0.1,0.2-0.3,0.1
				c-0.4-0.2-0.9-0.3-1.4-0.3c-1.5,0-2.3,0.9-2.3,2.8c0,1.8,0.8,2.8,2.4,2.8C72.3,48.7,72.8,48.6,73.2,48.4z"/>
		</g>
		<g>
			<path class="st0" d="M81.4,41.5c-0.1,0.1-0.3,0.2-0.6,0.2c-0.2,0-0.6-0.1-0.9-0.2l-0.3-0.1c-0.6-0.2-0.8-0.2-0.9,0v0.1
				c0,0.1-0.1,0.1-0.2,0.1h-0.3c-0.1,0-0.2-0.1-0.2-0.2c0-0.2,0.1-0.4,0.2-0.6c0.1-0.1,0.3-0.2,0.6-0.2s0.6,0.1,0.9,0.2l0.3,0.1
				c0.2,0.1,0.4,0.1,0.6,0.1c0.1,0,0.2-0.1,0.2-0.2v-0.1c0-0.1,0.1-0.1,0.2-0.1h0.3c0.1,0,0.2,0.1,0.2,0.3
				C81.6,41.2,81.5,41.4,81.4,41.5z"/>
			<path class="st0" d="M83.1,49.4l-2.6-7c0-0.1,0-0.1-0.1-0.2c0,0-0.1,0-0.2,0h-0.9c-0.1,0-0.1,0-0.2,0c0,0-0.1,0.1-0.1,0.2l-2.6,7
				c0,0.1,0,0.1,0,0.2c0,0,0.1,0.1,0.1,0.1h0.8c0.1,0,0.2-0.1,0.2-0.2l0.6-1.6h3l0.6,1.6c0,0.1,0.1,0.2,0.2,0.2h0.8
				c0.1,0,0.1,0,0.1-0.1C83.1,49.5,83.1,49.4,83.1,49.4z M78.6,46.8l1.2-3.5h0l1.2,3.5H78.6z"/>
		</g>
		<path class="st0" d="M91.4,43.1c-0.5-0.6-1.4-1-2.4-1c-1,0-1.8,0.3-2.4,1c-0.5,0.6-0.8,1.6-0.8,2.8s0.3,2.2,0.8,2.8
			c0.5,0.6,1.3,1,2.4,1s1.8-0.3,2.4-1c0.5-0.6,0.8-1.6,0.8-2.8S92,43.7,91.4,43.1z M89,48.7c-1.4,0-2-0.9-2-2.8s0.7-2.8,2-2.8
			c1.4,0,2.1,0.9,2.1,2.8S90.4,48.7,89,48.7z"/>
	</g>
</g>
</svg>
